<?xml version="1.0" encoding="UTF-8"?>
<svg xmlns="http://www.w3.org/2000/svg" id="Layer_1" data-name="Layer 1" viewBox="0 0 120 120">
  <defs>
    <style>.cls-1{fill:#009bdf;}.cls-2{font-size:22.73px;font-family:Roboto-Black, Roboto;font-weight:800;}</style>
  </defs>
  <circle class="cls-1" cx="60.73" cy="50.88" r="19.07"></circle>
  <path d="M24.65,110.7c-6.95,0-12.55,0-13.13,0l0-3c.36,0,35.91.16,41.36-.33,5.16-.45,14.42-4.21,19.07-7.73A143.92,143.92,0,0,0,83,89.57a20.07,20.07,0,0,0-5.76.38c-2.47.71-6.48,4.77-7.82,6.28l-.25.28-.35.13a49.51,49.51,0,0,1-13.91,2.55,26.78,26.78,0,0,1-11.24-1.75,2.2,2.2,0,0,1-1.38-2,2.24,2.24,0,0,1,1.2-2.1l7.71-4.06c1.15-1.7,1.42-3.23.78-4.32a3.51,3.51,0,0,0-3.51-1.4c-2.75.33-14.37,7-21,11.11l-.36.22H11.69v-3H26.2c3-1.84,17.8-10.81,21.89-11.3a6.46,6.46,0,0,1,6.45,2.85c1.3,2.2.9,5.07-1.12,7.87l-.2.29-6.83,3.59a25,25,0,0,0,8.38,1A48.65,48.65,0,0,0,67.42,94c1.2-1.32,5.57-5.91,9-6.88,3.7-1.06,9.86-.24,10.12-.21l3,.4-2.1,2.14c-.36.36-8.82,9-13.61,12.61-5.09,3.86-14.92,7.83-20.62,8.33C49.75,110.64,35.54,110.7,24.65,110.7Z"></path>
  <path d="M61.37,97.23l-2.91-.71c.26-1.08,2.62-10.63,5.11-13.3,2.74-2.92,7.67-2.78,7.88-2.77l1.64.06L71.41,93.94l-3-.37,1.25-10a6.87,6.87,0,0,0-3.91,1.71C64.29,86.85,62.29,93.44,61.37,97.23Z"></path>
  <path d="M49.23,34.63,49,29.31a3.62,3.62,0,0,1,1.33-3l15.86-13a3,3,0,0,1,3-.46l30.07,12h12.5v3H98.66l-29-11.59a3,3,0,0,0-3,.47L53.36,27.66a3.67,3.67,0,0,0-1.33,3l.2,3.8Z"></path>
  <path d="M89.91,55.4H71.5a6.58,6.58,0,0,1-6.59-5.57,6.43,6.43,0,0,1,6.37-7.27H82.53V33.49L66.66,28.05l-7.55,6.79-2-2.23,7.25-6.52A3.67,3.67,0,0,1,68,25.34l17.53,6V45.56H71.38a3.5,3.5,0,0,0-3.45,2.7,3.43,3.43,0,0,0,3.35,4.14H89c1.81-1.2,9.22-5.89,14.45-5.74s8,0,8.06,0l.18,3c-.12,0-2.92.17-8.34,0-4-.12-10.78,3.91-13,5.48Z"></path>
  <rect x="108.44" y="85.89" width="3" height="24.6"></rect>
  <rect x="102.18" y="92.03" width="3" height="18.46"></rect>
  <rect x="96.16" y="98.29" width="3" height="12.2"></rect>
  <rect x="12.16" y="10.89" width="3" height="24.6"></rect>
  <rect x="18.42" y="10.89" width="3" height="18.46"></rect>
  <rect x="24.44" y="10.89" width="3" height="12.2"></rect>
  <path d="M55.67,69.45A18.61,18.61,0,1,1,72.46,42.79l-2.71,1.3A15.6,15.6,0,1,0,71,53.74l3,.55A18.62,18.62,0,0,1,55.67,69.45Z"></path>
  <path d="M29.78,45.13a2,2,0,0,1-.41-.05,1.5,1.5,0,0,1-1-1.86A28.38,28.38,0,0,1,40.89,26.78a1.5,1.5,0,1,1,1.57,2.56A25.45,25.45,0,0,0,31.22,44.05,1.49,1.49,0,0,1,29.78,45.13Z"></path>
  <path d="M41.6,75.55a1.49,1.49,0,0,1-.78-.22A28.43,28.43,0,0,1,28.37,59a1.5,1.5,0,1,1,2.88-.83A25.39,25.39,0,0,0,42.39,72.77a1.5,1.5,0,0,1-.79,2.78Z"></path>
  <path d="M69.46,75.72a1.5,1.5,0,0,1-.77-2.79A25.32,25.32,0,0,0,80.06,58.31a1.52,1.52,0,0,1,1.87-1,1.5,1.5,0,0,1,1,1.86A28.36,28.36,0,0,1,70.23,75.51,1.51,1.51,0,0,1,69.46,75.72Z"></path>
  <text class="cls-2" transform="translate(47.73 58.39)">$</text>
</svg>
