<?xml version="1.0" encoding="UTF-8"?>
<svg xmlns="http://www.w3.org/2000/svg" id="Layer_1" data-name="Layer 1" viewBox="0 0 120 120">
  <defs>
    <style>.cls-1{fill:#ed1e79;}</style>
  </defs>
  <g id="Shape_647" data-name="Shape 647">
    <path class="cls-1" d="M78.87,21.59h-35l9,42h31s6.43-1.69,10-19C93.87,44.59,73.39,42.08,78.87,21.59Z"></path>
  </g>
  <path d="M87,45.93a16.87,16.87,0,1,1,16.87-16.87A16.89,16.89,0,0,1,87,45.93Zm0-30.74a13.87,13.87,0,1,0,13.87,13.87A13.88,13.88,0,0,0,87,15.19Z"></path>
  <path d="M78.14,64.84H46.44v-3H77.87a9.19,9.19,0,0,0,6.92-5l2.77-12.7,2.93.64-2.85,13a12.11,12.11,0,0,1-9.37,7Z"></path>
  <path d="M96.44,84.4H39.83a11.45,11.45,0,0,1-1.68-22.77L28.64,23.16a.78.78,0,0,0-.76-.6L16.67,22.4V11.86h11.6a10.58,10.58,0,0,1,10.3,8.33L48.81,63.36l-.1.36c-.05.22-1.48,5.24-8.14,6.2h-.21a2.45,2.45,0,1,0,0,4.89H96.44Zm-76.77-65,8.25.12a3.78,3.78,0,0,1,3.63,2.89l9.89,40a1.67,1.67,0,0,1-1.61,2.06,8.45,8.45,0,1,0,0,16.89H93.44V77.82H40.36a5.45,5.45,0,0,1-.12-10.89c3.77-.57,5.09-2.84,5.46-3.69L35.65,20.85a7.59,7.59,0,0,0-7.38-6h-8.6ZM38.52,63.16h0Z"></path>
  <path d="M51.87,23.57H38.06a1.5,1.5,0,0,1,0-3H51.87a1.5,1.5,0,0,1,0,3Z"></path>
  <path d="M73.4,23.74H64.86a1.5,1.5,0,0,1,0-3H73.4a1.5,1.5,0,0,1,0,3Z"></path>
  <circle cx="58.86" cy="22.15" r="1.89"></circle>
  <path d="M50.39,99.52a8.24,8.24,0,1,1,8.24-8.24A8.24,8.24,0,0,1,50.39,99.52Zm0-13.48a5.24,5.24,0,1,0,5.24,5.24A5.25,5.25,0,0,0,50.39,86Z"></path>
  <path d="M80,99.52a8.24,8.24,0,1,1,8.24-8.24A8.25,8.25,0,0,1,80,99.52ZM80,86a5.24,5.24,0,1,0,5.24,5.24A5.25,5.25,0,0,0,80,86Z"></path>
  <path d="M86.76,36.09a1.25,1.25,0,0,1-1.25-1.25V23.11a1.25,1.25,0,0,1,2.5,0V34.84A1.25,1.25,0,0,1,86.76,36.09Z"></path>
  <path d="M93,30.23H80.56a1.25,1.25,0,0,1,0-2.5H93a1.25,1.25,0,0,1,0,2.5Z"></path>
</svg>
