<?xml version="1.0" encoding="UTF-8"?>
<svg xmlns="http://www.w3.org/2000/svg" id="Layer_1" data-name="Layer 1" viewBox="0 0 120 120">
  <defs>
    <style>.cls-1{fill:#009bdf;}</style>
  </defs>
  <g id="Ellipse_645" data-name="Ellipse 645">
    <path class="cls-1" d="M46.64,30.68a35,35,0,1,0,35,35A35,35,0,0,0,46.64,30.68Z"></path>
  </g>
  <g id="Shape_14_Clipping_Path" data-name="Shape 14 Clipping Path">
    <path d="M40.49,26.61A37.35,37.35,0,1,0,77.56,64,37.25,37.25,0,0,0,40.49,26.61Zm0,70.17A32.83,32.83,0,1,1,73.08,64,32.75,32.75,0,0,1,40.49,96.78ZM31.81,60.43A4.9,4.9,0,1,0,27,55.54,4.87,4.87,0,0,0,31.81,60.43Zm18.25,0a4.9,4.9,0,1,0-4.86-4.89A4.88,4.88,0,0,0,50.06,60.43ZM27.27,71.2l-3.3,3a24.59,24.59,0,0,0,16.9,7c5.11,0,11.16-1.7,17.84-6.76L56,70.92C39.15,83.69,27.74,71.71,27.27,71.2ZM97.51,39.6a20.85,20.85,0,0,0-17.19,9.09c.48.86.92,1.74,1.33,2.64A18.5,18.5,0,1,1,83,72c-.31.91-.66,1.82-1,2.7a20.76,20.76,0,0,0,15.56,7,21.06,21.06,0,0,0,0-42.12Zm-4.9,19.07a2.76,2.76,0,1,0-2.74-2.76A2.75,2.75,0,0,0,92.61,58.67Zm13-2.76a2.74,2.74,0,1,0-2.74,2.76A2.75,2.75,0,0,0,105.64,55.91ZM97.72,70.44c2.88,0,6.29-1,10.06-3.81l-1.52-2c-9.51,7.2-15.94.45-16.21.15l-1.86,1.73A13.87,13.87,0,0,0,97.72,70.44ZM92.33,26.61a14.15,14.15,0,0,0-25.84-8.12,20,20,0,0,1,.9,1.79,12.56,12.56,0,1,1,.92,14,19.49,19.49,0,0,1-.72,1.84,14.15,14.15,0,0,0,24.74-9.52Zm-17.5-1.35A1.88,1.88,0,1,0,73,23.39,1.86,1.86,0,0,0,74.83,25.26Zm8.84-1.87a1.86,1.86,0,1,0-1.86,1.87A1.87,1.87,0,0,0,83.67,23.39Zm-5.38,9.85a11.23,11.23,0,0,0,6.83-2.59l-1-1.38c-6.46,4.89-10.82.3-11,.11l-1.26,1.17A9.41,9.41,0,0,0,78.29,33.24Z"></path>
  </g>
</svg>
