<?xml version="1.0" encoding="UTF-8"?>
<svg xmlns="http://www.w3.org/2000/svg" id="Layer_1" data-name="Layer 1" viewBox="0 0 120 120">
  <defs>
    <style>.cls-1{fill:#f80;}.cls-2{font-size:21.02px;font-family:Roboto-Black, Roboto;font-weight:800;}</style>
  </defs>
  <g id="Rectangle_646" data-name="Rectangle 646">
    <path class="cls-1" d="M44.25,102.92h11V47.4h-11Z"></path>
    <path class="cls-1" d="M61.55,102.92h11V56.8h-11Z"></path>
    <path class="cls-1" d="M98.78,102.92h11V62.36h-11Z"></path>
    <path class="cls-1" d="M79.64,102.92h11V49h-11Z"></path>
  </g>
  <path d="M30.2,42A16.3,16.3,0,1,1,46.5,25.7,16.32,16.32,0,0,1,30.2,42Zm0-30.1A13.8,13.8,0,1,0,44,25.7,13.82,13.82,0,0,0,30.2,11.9Z"></path>
  <path d="M63.66,41.08a5.84,5.84,0,1,1,5.83-5.84A5.85,5.85,0,0,1,63.66,41.08Zm0-9.67a3.84,3.84,0,1,0,3.83,3.83A3.84,3.84,0,0,0,63.66,31.41Z"></path>
  <path d="M82.07,38a5.84,5.84,0,1,1,5.83-5.84A5.85,5.85,0,0,1,82.07,38Zm0-9.67a3.84,3.84,0,1,0,3.83,3.83A3.84,3.84,0,0,0,82.07,28.32Z"></path>
  <rect x="51.03" y="25.28" width="2" height="14.01" transform="translate(7.79 74.63) rotate(-75.56)"></rect>
  <rect x="68.4" y="33.3" width="9.07" height="2" transform="translate(-5.52 15.85) rotate(-11.95)"></rect>
  <rect x="94.5" y="30.89" width="2" height="23.89" transform="translate(3.82 93.33) rotate(-53)"></rect>
  <polygon points="97.46 52.77 97.31 50.77 105.14 50.18 104.19 42.49 106.17 42.24 107.38 52.02 97.46 52.77"></polygon>
  <path d="M23.11,72.23c-.92-2.48-3.84-10.79-2.52-13.71,1-2.16,5.14-4.15,8.64-3.39,2,.43,5.44,2.16,5.44,8.87h-2.5c0-2.59-.6-5.82-3.46-6.43-2.57-.55-5.46,1.12-5.84,2-.62,1.37.86,7.2,2.58,11.82Z"></path>
  <path d="M29.14,103.38a14,14,0,0,1-8.91-3c-3.49-2.79-5.59-7.27-5.92-12.62-.57-9.43,9.47-17.06,9.9-17.38l.33-.25,12.08.13a9.11,9.11,0,0,0,5.16-6.61c.12-1.08-.14-1.7-.41-1.91-1.13-.91-5.46-1.17-8.17-1.07l-.1-2.5c1.25,0,7.57-.19,9.84,1.62a4.5,4.5,0,0,1,1.32,4.13,11.47,11.47,0,0,1-5.7,8.13C45,76.53,47.91,82.9,46.89,90.51c-.68,5-4.91,11-14.75,12.62A18.22,18.22,0,0,1,29.14,103.38ZM25.38,72.65c-1.64,1.34-9,7.75-8.57,15,.28,4.63,2.05,8.47,5,10.82a12.29,12.29,0,0,0,10,2.22c11-1.77,12.48-9,12.67-10.49.92-6.88-1.68-12.4-7.75-16.37l-.2-.17-.87-.87Z"></path>
  <text class="cls-2" transform="translate(24.72 33.28)">$</text>
  <text class="cls-2" transform="translate(24.19 93.63)">$</text>
  <polygon points="53.37 102.94 38.37 102.94 38.37 100.04 40.37 100.04 40.37 100.94 51.37 100.94 51.37 48.03 40.07 48.03 40.07 59.53 38.07 59.53 38.07 46.03 53.37 46.03 53.37 102.94"></polygon>
  <path d="M70.87,102.94H56.47V55.83h14.4Zm-12.4-2h10.4V57.83H58.47Z"></path>
  <path d="M89.16,103H74.59V47.75H89.16Zm-12.4-2.17H87V49.92H76.76Z"></path>
  <path d="M107,102.88H92.74V61.4H107ZM94.62,101h10.52V63.27H94.62Z"></path>
</svg>
